#!OML:ASF X:\für Bonn\!DataBase\2005_08_12_Daniel\c3d\Daniel.ASF
:FULLY-SPECIFIED
:DEGREES
139
root 0.207753 9.01942 -15.1992 338.737 19.263 -1.42616
lowerback 80.7803 -3.69235 6.06987
upperback 11.6573 1.69828 -2.80258
thorax -6.76378 1.77785 -6.3957
lowerneck 3.50512 -2.88207 -4.22658
upperneck 19.4189 -3.70052 1.42376
head 5.39211 -1.88107 1.03271
rclavicle -1.43125e-014 6.04305e-014
rhumerus 33.0269 -29.1523 -107.959
rradius 8.65914
rwrist 62.0683
rhand -52.6542 19.2621
rfingers 7.12502
rthumb -25.1344 -9.10332
lclavicle -1.43125e-014 6.04305e-014
lhumerus -19.6263 -0.297192 85.5264
lradius 53.702
lwrist -4.43902
lhand -11.6191 -8.09541
lfingers 7.12502
lthumb 14.4241 21.3834
rfemur 39.4282 -71.9059 -110.037
rtibia 142.885
rfoot -28.2312 -313.603
rtoes 4.58104
lfemur -74.5064 40.0561 -8.38265
ltibia 140.792
lfoot -33.4116 -42.2116
ltoes 4.4609
140
root 0.199587 8.89732 -15.1802 338.195 19.2977 -1.55228
lowerback 80.9917 -3.76888 6.04513
upperback 11.6459 1.62675 -2.79878
thorax -6.75485 1.74999 -6.35008
lowerneck 3.67992 -2.75931 -4.14323
upperneck 19.4874 -3.54196 1.40124
head 5.37757 -1.8021 1.02012
rclavicle 2.78299e-014 -5.60573e-014
rhumerus 32.5166 -29.2767 -108.347
rradius 8.88518
rwrist 61.7197
rhand -53.6034 20.2999
rfingers 7.12502
rthumb -26.0436 -7.93489
lclavicle 2.78299e-014 -5.60573e-014
lhumerus -19.7181 -0.144217 85.472
lradius 53.4261
lwrist -4.67212
lhand -11.6945 -7.9011
lfingers 7.12502
lthumb 14.3514 21.5828
rfemur 43.0645 -69.9242 -115.08
rtibia 143.91
rfoot -28.9107 -312.362
rtoes 4.73623
lfemur -74.682 42.1449 -7.22876
ltibia 141.825
lfoot -33.8087 -43.5013
ltoes 4.54991
141
root 0.190899 8.77842 -15.1613 337.677 19.3181 -1.66907
lowerback 81.1705 -3.80613 5.99858
upperback 11.6475 1.57571 -2.78399
thorax -6.73445 1.72913 -6.29163
lowerneck 3.83628 -2.6435 -4.01943
upperneck 19.5576 -3.38625 1.33837
head 5.36553 -1.72393 0.987512
rclavicle 4.85035e-014 -4.57205e-014
rhumerus 31.9714 -29.4379 -108.686
rradius 9.17142
rwrist 61.2973
rhand -54.4964 21.4921
rfingers 7.12502
rthumb -26.8984 -6.614
lclavicle 4.85035e-014 -4.57205e-014
lhumerus -19.7691 -0.0246271 85.4249
lradius 53.1565
lwrist -4.79661
lhand -11.812 -7.64211
lfingers 7.12502
lthumb 14.2381 21.8498
rfemur 45.6115 -67.9256 -119.068
rtibia 144.927
rfoot -29.7589 -311.192
rtoes 4.64838
lfemur -74.7644 44.3483 -5.96455
ltibia 142.819
lfoot -34.3176 -44.8617
ltoes 4.76466
142
root 0.182563 8.66096 -15.1438 337.184 19.3529 -1.79277
lowerback 81.3011 -3.8791 5.98833
upperback 11.6613 1.50968 -2.79357
thorax -6.70527 1.70665 -6.26995
lowerneck 4.02403 -2.53023 -3.85888
upperneck 19.6091 -3.23817 1.29532
head 5.34249 -1.64585 0.954937
rclavicle 1.66979e-014 1.19271e-014
rhumerus 31.4589 -29.6189 -109.076
rradius 9.42729
rwrist 60.8473
rhand -55.3962 22.9271
rfingers 7.12502
rthumb -27.759 -5.0433
lclavicle 1.66979e-014 1.19271e-014
lhumerus -19.7738 0.0732911 85.3588
lradius 52.8515
lwrist -5.00709
lhand -11.9005 -7.38373
lfingers 7.12502
lthumb 14.1529 22.1142
rfemur 47.3227 -66.0346 -122.241
rtibia 145.916
rfoot -30.4714 -310.106
rtoes 4.68415
lfemur -74.8985 46.5022 -4.68257
ltibia 143.795
lfoot -34.7613 -46.2115
ltoes 4.97651
143
root 0.174316 8.54633 -15.125 336.698 19.3819 -1.9115
lowerback 81.4048 -3.93458 5.96549
upperback 11.6982 1.45041 -2.79621
thorax -6.6527 1.68732 -6.2376
lowerneck 4.20837 -2.42507 -3.66921
upperneck 19.6294 -3.09734 1.22732
head 5.30993 -1.57066 0.909147
rclavicle 6.20208e-014 -5.00937e-014
rhumerus 30.927 -29.7978 -109.465
rradius 9.76839
rwrist 60.4377
rhand -56.2366 24.4485
rfingers 7.12502
rthumb -28.5623 -3.38965
lclavicle 6.20208e-014 -5.00937e-014
lhumerus -19.771 0.18469 85.3101
lradius 52.6066
lwrist -5.1362
lhand -12.0201 -7.07923
lfingers 7.12502
lthumb 14.0377 22.4267
rfemur 48.4585 -64.1212 -124.866
rtibia 146.881
rfoot -31.2277 -308.997
rtoes 4.74757
lfemur -74.8825 48.7997 -3.25469
ltibia 144.738
lfoot -35.472 -47.597
ltoes 5.07342
144
root 0.165747 8.43483 -15.1073 336.222 19.4073 -2.02028
lowerback 81.4959 -4.01142 5.94464
upperback 11.746 1.36248 -2.84019
thorax -6.59136 1.66191 -6.24383
lowerneck 4.37996 -2.30858 -3.4722
upperneck 19.6596 -2.94713 1.20009
head 5.28311 -1.48841 0.874764
rclavicle -2.54444e-014 -3.53837e-014
rhumerus 30.4352 -29.9458 -109.972
rradius 10.1168
rwrist 60.0029
rhand -57.0276 26.3478
rfingers 7.12502
rthumb -29.3178 -1.36088
lclavicle -2.54444e-014 -3.53837e-014
lhumerus -19.71 0.272298 85.2019
lradius 52.3373
lwrist -5.29281
lhand -12.1062 -6.73556
lfingers 7.12502
lthumb 13.9546 22.7761
rfemur 49.1035 -62.2637 -127.022
rtibia 147.804
rfoot -31.8482 -307.903
rtoes 4.92097
lfemur -74.7611 51.0625 -1.70448
ltibia 145.645
lfoot -36.1157 -49.0148
ltoes 5.36264
145
root 0.157252 8.32582 -15.0897 335.724 19.4279 -2.14382
lowerback 81.6201 -4.06698 5.9124
upperback 11.7743 1.29517 -2.8506
thorax -6.54719 1.63902 -6.21428
lowerneck 4.39182 -2.19455 -3.29601
upperneck 19.8102 -2.78943 1.13948
head 5.32052 -1.4055 0.831341
rclavicle 5.725e-014 -4.49253e-014
rhumerus 29.2491 -28.3236 -109.191
rradius 10.5886
rwrist 57.5034
rhand -57.7895 28.2341
rfingers 7.12502
rthumb -30.0451 0.655031
lclavicle 5.725e-014 -4.49253e-014
lhumerus -19.6952 0.374231 85.1479
lradius 52.1265
lwrist -5.44716
lhand -12.239 -6.44943
lfingers 7.12502
lthumb 13.8267 23.071
rfemur 49.2122 -60.5819 -128.65
rtibia 148.693
rfoot -32.1933 -306.802
rtoes 5.19987
lfemur -74.4381 53.4355 0.104193
ltibia 146.531
lfoot -36.9491 -50.4725
ltoes 5.59853
